<!DOCTYPE svg PUBLIC "-//W3C//DTD SVG 1.1//EN" "http://www.w3.org/Graphics/SVG/1.1/DTD/svg11.dtd">

<!-- Uploaded to: SVG Repo, www.svgrepo.com, Transformed by: SVG Repo Mixer Tools -->
<svg width="800px" height="800px" viewBox="0 0 512 512" enable-background="new 0 0 512 512" id="Слой_1" version="1.1" xml:space="preserve" xmlns="http://www.w3.org/2000/svg" xmlns:xlink="http://www.w3.org/1999/xlink" fill="#000000">

<g id="SVGRepo_bgCarrier" stroke-width="0"/>

<g id="SVGRepo_tracerCarrier" stroke-linecap="round" stroke-linejoin="round"/>

<g id="SVGRepo_iconCarrier"> <g> <g> <g> <path clip-rule="evenodd" d="M110.978,238.282c-2.898-17.044-0.532-27.459,7.1-31.247 c7.643-3.791,13.56-1.58,17.749,6.633l44.053,112.363c12.008,30.664,6.149,64.878-17.574,102.644l-75.71-20.541l7.274-33.75 c2.905-13.133,0.286-25.452-7.856-36.949l-20.077-29.792c-16.64-25.138-25.079-50.063-25.315-74.772 c-0.225-34.637,3.094-69.881,9.95-105.729c21.974-9.107,31.537,15.526,28.691,73.899c-0.964,21.892,12.207,49.143,39.513,81.755 L110.978,238.282z" fill="#333333" fill-rule="evenodd"/> </g> <g> <path clip-rule="evenodd" d="M347.074,140.001c0,35.036,0,70.066,0,105.089l-91.075,52.776 h-0.057l-91.075-52.776c0-35.022,0-70.053,0-105.089h0.057l91.019-52.602l91.075,52.602H347.074z M313.612,175.904 l-57.67,57.548l-57.557-57.548l12.105-12.977l33.753,25.661v-68.081c-18.795,10.88-37.593,21.761-56.391,32.644 c-0.018,26.273-0.018,52.556,0,78.846l68.029,39.394h0.116l68.088-39.394c0.019-26.29,0.019-52.572,0-78.846 c-18.817-10.884-37.634-21.766-56.449-32.644v68.081l33.869-25.661L313.612,175.904z" fill="#333333" fill-rule="evenodd"/> </g> <g> <path clip-rule="evenodd" d="M332.06,326.031l44.055-112.363 c4.19-8.213,10.107-10.424,17.75-6.633c7.61,3.788,9.959,14.203,7.04,31.247l-7.74,44.514 c27.29-32.612,40.44-59.863,39.457-81.755c-2.826-58.373,6.756-83.007,28.749-73.899c6.856,35.848,10.173,71.092,9.95,105.729 c-0.236,24.71-8.675,49.635-25.314,74.772l-20.077,29.792c-8.161,11.497-10.801,23.816-7.914,36.949l7.332,33.75l-75.711,20.541 C325.912,390.909,320.052,356.695,332.06,326.031z" fill="#333333" fill-rule="evenodd"/> </g> </g> </g> </g>

</svg>
